# xmcd
#
# Track frame offsets: 
#        150
#        19206
#        35462
#        56131
#        69691
#        88622
#        108197
#        124111
#        149771
#        163589
#        183394
#        205090
#
# Disc length: 3019 seconds
#
# Revision: 2
# Processed by: cddbd v1.5.2PL0 Copyright (c) Steve Scherf et al.
# Submitted via: ExactAudioCopy v1.0b3
#
DISCID=ad0bc90c
DTITLE=Mark Knopfler and Emmylou Harris - All The Road Running
DYEAR=2006
DGENRE=Country
TTITLE0=Beachcombing
TTITLE1=I Dug Up A Diamond
TTITLE2=This Is Us
TTITLE3=Red Staggerwing
TTITLE4=Rollin' On
TTITLE5=Love And Happiness For You
TTITLE6=Right Now
TTITLE7=Donkey Town
TTITLE8=Belle Star
TTITLE9=Beyond My Wildest Dreams
TTITLE10=All The Roadrunning
TTITLE11=If This Is Goodbye
EXTD=Besitzer Torsten Staubitz
EXTT0=
EXTT1=
EXTT2=
EXTT3=
EXTT4=
EXTT5=
EXTT6=
EXTT7=
EXTT8=
EXTT9=
EXTT10=
EXTT11=
PLAYORDER=
